<?xml version="1.0" encoding="UTF-8"?>
<svg version="1.1" xmlns="http://www.w3.org/2000/svg" width="512" height="512">
<path d="M0 0 C1.44789917 -0.00574036 1.44789917 -0.00574036 2.92504883 -0.01159668 C4.96599368 -0.01431882 7.00697324 -0.00693656 9.04785156 0.00976562 C12.17591971 0.03117076 15.30169098 0.00997396 18.4296875 -0.015625 C20.41146341 -0.01298178 22.3932379 -0.00785692 24.375 0 C25.7813269 -0.01214539 25.7813269 -0.01214539 27.21606445 -0.02453613 C33.63721387 0.0684164 33.63721387 0.0684164 36.2890625 2.29882812 C37.72843743 5.87536193 37.3790671 8.69990791 37.1875 12.53125 C38.11046875 12.55703125 39.0334375 12.5828125 39.984375 12.609375 C69.91390402 13.91065887 98.96617529 23.20968974 122.1875 42.53125 C123.34572266 43.44583984 123.34572266 43.44583984 124.52734375 44.37890625 C154.31564714 69.03671099 169.48646259 112.88425599 173.05883789 150.08300781 C173.18163201 152.41959119 173.09452853 154.61943375 172.90625 156.94921875 C171.7942013 174.89650216 180.24115657 190.04244193 187.631073 205.86129761 C191.399462 213.92855332 194.94001538 222.08483762 198.44219971 230.27044678 C200.08879178 234.11404322 201.75025283 237.95120091 203.41015625 241.7890625 C204.05098783 243.27244201 204.69177625 244.75584016 205.33251953 246.23925781 C208.17509726 252.81788464 211.02479036 259.393427 213.875 265.96875 C214.40747163 267.19726522 214.93994233 268.42578085 215.47241211 269.65429688 C217.04398682 273.28000049 218.61571419 276.90563789 220.1875 280.53125 C222.29185663 285.38533434 224.39607501 290.23947856 226.5 295.09375 C226.89384888 296.00241821 226.89384888 296.00241821 227.2956543 296.92944336 C230.25860131 303.76583103 233.21943234 310.603129 236.17604065 317.44226074 C236.86700056 319.04042453 237.55819389 320.63848741 238.24961853 322.2364502 C239.97906328 326.23435254 241.70440252 330.23392886 243.42114258 334.23730469 C246.3319791 341.01439763 249.26234736 347.76533382 252.42578125 354.4296875 C257.65526486 365.53501535 261.04232547 374.1426769 259.1875 386.53125 C258.95933594 388.09166016 258.95933594 388.09166016 258.7265625 389.68359375 C253.80905347 413.98375202 234.27307605 433.43262327 214.41748047 446.71533203 C197.57324413 457.62585532 177.27555603 467.93393997 157.1875 470.53125 C157.001875 471.35625 156.81625 472.18125 156.625 473.03125 C153.5122781 480.61005114 147.53143871 486.08318121 140.1875 489.53125 C63.78162067 521.01330213 -33.79559531 521.70969102 -110.8125 491.53125 C-119.77852008 487.76108608 -126.7604856 483.74921011 -131.75 475.21875 C-132.8125 472.53125 -132.8125 472.53125 -132.8125 470.53125 C-133.73546875 470.3353125 -134.6584375 470.139375 -135.609375 469.9375 C-170.1677033 462.18336539 -205.4464323 442.62925934 -225 412.28125 C-232.58368486 399.54722797 -237.11860665 385.45599086 -234.8125 370.53125 C-232.93187166 363.79237694 -229.74127969 357.51795886 -226.75 351.21875 C-225.91707547 349.405418 -225.08754135 347.59052522 -224.26123047 345.77416992 C-222.58568613 342.09524941 -220.89809027 338.42226208 -219.20166016 334.75292969 C-216.10909426 328.03225938 -213.20152089 321.23691797 -210.31866455 314.42428589 C-208.8162031 310.87679302 -207.30074603 307.33486849 -205.78515625 303.79296875 C-205.47366638 303.06467361 -205.16217651 302.33637848 -204.84124756 301.58601379 C-200.56099721 291.59133152 -196.21496732 281.62510418 -191.875 271.65625 C-190.1666012 267.73179933 -188.45822974 263.80733676 -186.75 259.8828125 C-186.33225815 258.92310043 -185.9145163 257.96338837 -185.4841156 256.97459412 C-181.43368636 247.66621784 -177.401428 238.35002903 -173.375 229.03125 C-173.05166687 228.28294922 -172.72833374 227.53464844 -172.39520264 226.76367188 C-171.12674428 223.82795741 -169.8582887 220.89224175 -168.5899353 217.95648193 C-164.69539083 208.9435435 -160.78950311 199.93551916 -156.88305664 190.92773438 C-155.92397354 188.71569346 -154.96892927 186.50189441 -154.01904297 184.28588867 C-153.31679553 182.68259893 -152.59218387 181.08808846 -151.81298828 179.52075195 C-149.37051032 174.542522 -149.38011093 169.89549327 -149.3125 164.46875 C-147.98636708 121.11076117 -133.46259598 75.47832132 -101.16015625 45.03125 C-77.21998288 24.78229279 -44.42718199 11.5561827 -12.8125 12.53125 C-12.874375 11.29375 -12.93625 10.05625 -13 8.78125 C-13.12529418 6.27536647 -12.90398792 4.74359476 -11.9074707 2.43066406 C-8.4482974 -0.70561007 -4.50329078 -0.03889153 0 0 Z M-1.8125 10.53125 C-1.85008423 16.46810791 -1.85008423 16.46810791 -1.88842773 22.52490234 C-1.97174435 35.57278765 -2.06040017 48.62063204 -2.15183926 61.66846275 C-2.2071706 69.58267096 -2.26065245 77.49688368 -2.30981445 85.41113281 C-2.35265738 92.30736865 -2.39893564 99.2035713 -2.44937855 106.09975588 C-2.47597862 109.752868 -2.50083167 113.40597353 -2.52157402 117.05912399 C-2.54476609 121.13240205 -2.57562613 125.20558672 -2.60717773 129.27880859 C-2.6129332 130.49656479 -2.61868866 131.71432098 -2.62461853 132.96897888 C-2.63440735 134.07398239 -2.64419617 135.1789859 -2.65428162 136.31747437 C-2.66073417 137.28166983 -2.66718672 138.24586529 -2.6738348 139.23927879 C-2.8125 141.53125 -2.8125 141.53125 -3.8125 143.53125 C-9.319814 144.1266353 -12.05431596 142.34570878 -16.1875 139.03125 C-30.98437289 127.87393052 -49.85460708 119.00685803 -68.8125 120.53125 C-86.63509577 123.26490901 -101.83713417 130.37850986 -115.98828125 141.3828125 C-118.8711824 143.57589083 -121.69757787 145.67866837 -124.8125 147.53125 C-127.6875 146.78125 -127.6875 146.78125 -129.8125 145.53125 C-130.10546875 142.8046875 -130.10546875 142.8046875 -129.8125 139.53125 C-117.05807869 124.6553518 -92.01690732 113.13288254 -72.41552734 111.30810547 C-52.12262498 110.04252661 -34.61631864 115.50501285 -17.30859375 126.078125 C-14.81369033 127.64418961 -14.81369033 127.64418961 -11.8125 128.53125 C-11.8125 93.88125 -11.8125 59.23125 -11.8125 23.53125 C-19.39390763 23.53125 -25.78801941 23.75200417 -33.0625 25.21875 C-33.9692749 25.39736572 -34.8760498 25.57598145 -35.81030273 25.76000977 C-43.73658434 27.38923486 -51.23946931 29.65810955 -58.8125 32.53125 C-59.81023437 32.88703125 -60.80796875 33.2428125 -61.8359375 33.609375 C-76.07722166 39.03098988 -88.17097244 47.76189628 -98.8125 58.53125 C-99.52664062 59.23507813 -100.24078125 59.93890625 -100.9765625 60.6640625 C-126.25456547 87.15057557 -138.13186792 128.38910922 -137.875 164.09375 C-137.87048828 165.29322266 -137.86597656 166.49269531 -137.86132812 167.72851562 C-137.84963769 170.66281359 -137.83325138 173.59700449 -137.8125 176.53125 C-134.92539156 173.68833199 -132.15660756 170.83036891 -129.5625 167.71875 C-114.29067005 150.25588663 -91.91546032 138.20951657 -68.8125 135.53125 C-49.82680675 134.429427 -30.4879608 135.28420735 -15.3125 148.15625 C-13.02312022 150.22982759 -11.54988119 151.92517822 -9.8125 154.53125 C-6.43602411 155.00659991 -6.43602411 155.00659991 -2.5625 155.03125 C2.95738214 155.1621563 6.33056001 155.95784948 11.1875 158.53125 C13.8879039 157.88461433 13.8879039 157.88461433 16.1875 156.53125 C19.75793928 155.34110357 22.73762788 155.45835011 26.5 155.40625 C31.62444654 155.24259327 31.62444654 155.24259327 36.19140625 153.12109375 C37.58872224 151.35405898 37.58872224 151.35405898 38.82421875 149.4375 C44.9857988 140.8218809 57.64711491 137.82743073 67.47290039 135.94140625 C91.33388595 132.33618494 115.52387067 138.12672639 135.46875 151.5234375 C143.578852 157.51279444 151.0925049 163.92496761 157.6015625 171.65625 C159.05742032 173.37746121 160.58448434 174.94890759 162.1875 176.53125 C163.20449961 131.98666695 151.89208957 88.71370764 120.625 55.53125 C98.87979053 34.28708222 66.04399949 23.53125 36.1875 23.53125 C36.1875 58.18125 36.1875 92.83125 36.1875 128.53125 C39.837831 127.0711176 42.42016076 125.84745485 45.625 123.78125 C64.41478744 112.39603065 85.71657269 108.26033761 107.25 112.96875 C122.3707194 117.04812217 135.98715615 124.8733107 148.1875 134.53125 C148.74953125 134.95752686 149.3115625 135.38380371 149.890625 135.82299805 C151.38102582 136.98835998 152.79106102 138.25480133 154.1875 139.53125 C154.5625 142.84375 154.5625 142.84375 154.1875 145.53125 C152.0625 146.78125 152.0625 146.78125 149.1875 147.53125 C145.11373366 145.11052502 141.46551706 142.21150175 137.75 139.28125 C121.98022886 127.45878286 101.99864531 118.19471861 81.87109375 120.9921875 C65.08617982 123.96761541 49.59364928 130.88159967 36.43359375 141.8203125 C33.55467325 144.0132989 31.71824821 143.85969169 28.1875 143.53125 C26.9125249 140.98129981 27.04839403 139.17341546 27.02928162 136.31747437 C27.01459839 134.6599691 27.01459839 134.6599691 26.99961853 132.96897888 C26.99386307 131.75122269 26.9881076 130.53346649 26.98217773 129.27880859 C26.97227814 128.0007988 26.96237854 126.722789 26.95217896 125.40605164 C26.92510125 121.89597155 26.90410724 118.38587799 26.88417697 114.87575102 C26.86233506 111.20951081 26.8349376 107.5433123 26.80812073 103.87710571 C26.75816952 96.93212393 26.71323972 89.98711903 26.67009836 83.04209197 C26.62074671 75.13648533 26.56582091 67.23092053 26.51041877 59.32535434 C26.39656145 43.06069004 26.29046652 26.79598745 26.1875 10.53125 C16.9475 10.53125 7.7075 10.53125 -1.8125 10.53125 Z M-120.25 172.53125 C-120.84184082 173.10053223 -121.43368164 173.66981445 -122.04345703 174.25634766 C-122.60532715 174.82144043 -123.16719727 175.3865332 -123.74609375 175.96875 C-124.24165771 176.46246094 -124.73722168 176.95617187 -125.24780273 177.46484375 C-129.4239696 182.98006864 -131.84585445 189.78376075 -134.47265625 196.13671875 C-134.98553444 197.36682426 -134.98553444 197.36682426 -135.5087738 198.6217804 C-136.24679333 200.39253705 -136.9835765 202.1638094 -137.71923828 203.93554688 C-139.72492598 208.76546655 -141.7400761 213.59143979 -143.75390625 218.41796875 C-144.17141144 219.41927826 -144.58891663 220.42058777 -145.01907349 221.45223999 C-149.41651023 231.9928423 -153.86292443 242.51257873 -158.3125 253.03125 C-164.50902578 267.68551938 -170.67643151 282.35156537 -176.8125 297.03125 C-182.63432227 310.95749164 -188.47691974 324.87473342 -194.34875488 338.77996826 C-195.548993 341.62424169 -196.74688293 344.46949448 -197.94433594 347.31494141 C-201.28632672 355.24797878 -204.6392248 363.17407236 -208.10247803 371.05508423 C-209.45057949 374.12292276 -210.78788439 377.19541914 -212.12512207 380.26800537 C-213.03436833 382.34207908 -213.96152991 384.40746481 -214.88964844 386.47314453 C-215.43258802 387.71866297 -215.97463711 388.96457011 -216.515625 390.2109375 C-217.22187012 391.80010986 -217.22187012 391.80010986 -217.94238281 393.42138672 C-219.26847198 398.16092764 -218.68714971 401.95094295 -216.31640625 406.234375 C-197.00239868 431.57186582 -172.15482568 447.87245996 -141.875 457.59375 C-140.87231079 457.9182312 -140.87231079 457.9182312 -139.84936523 458.24926758 C-136.5922144 459.23357373 -135.12088819 459.63404606 -131.8125 458.53125 C-130.5859877 455.6191329 -130.5859877 455.6191329 -129.65625 451.98828125 C-129.46857056 451.31656387 -129.28089111 450.6448465 -129.08752441 449.95277405 C-128.48012013 447.75370992 -127.8946018 445.54963762 -127.3125 443.34375 C-127.11140625 442.59538879 -126.9103125 441.84702759 -126.703125 441.07598877 C-123.38239843 428.66949622 -120.84630516 416.35530171 -119.8125 403.53125 C-119.72258789 402.42773193 -119.63267578 401.32421387 -119.54003906 400.18725586 C-118.82643817 390.56824593 -118.57013934 380.98653564 -118.5625 371.34375 C-118.56182526 370.56434052 -118.56115051 369.78493103 -118.56045532 368.98190308 C-118.59972732 340.09275982 -122.66655502 311.1054135 -129.64428711 283.06982422 C-130.67597698 278.80880006 -130.96522869 274.90947253 -130.8125 270.53125 C-125.94348124 268.25386301 -120.85426413 267.44682369 -115.60961914 266.46826172 C-114.07216286 266.17521652 -114.07216286 266.17521652 -112.50364685 265.87625122 C-109.11927079 265.23265956 -105.73353956 264.59654829 -102.34765625 263.9609375 C-99.99257552 263.51567914 -97.63755002 263.07012855 -95.28257751 262.6242981 C-90.34794448 261.69133723 -85.41262704 260.76210711 -80.47680664 259.83544922 C-74.15257362 258.64779314 -67.83018204 257.45064227 -61.50827885 256.25065422 C-56.64571905 255.32880424 -51.78219356 254.41213538 -46.91836357 253.49701309 C-44.58687099 253.05767394 -42.25568727 252.61669239 -39.92482185 252.17403793 C-36.66577389 251.55589014 -33.40548499 250.94476235 -30.14477539 250.33544922 C-29.18302399 250.15157654 -28.22127258 249.96770386 -27.2303772 249.77825928 C-18.21737991 248.10881486 -18.21737991 248.10881486 -13.8125 248.53125 C-11.8125 250.53125 -11.8125 250.53125 -11.80859375 253.171875 C-13.18706963 257.78467365 -15.76721571 260.67332285 -18.875 264.28125 C-20.07446737 265.71333347 -21.27368713 267.14562436 -22.47265625 268.578125 C-23.05289551 269.26326172 -23.63313477 269.94839844 -24.23095703 270.65429688 C-26.13449949 272.91339451 -27.98011965 275.21417549 -29.8125 277.53125 C-32.66465402 281.10995273 -35.5459011 284.66368303 -38.43725586 288.21069336 C-43.54188044 294.47314396 -48.59040826 300.77089369 -53.55541992 307.14453125 C-58.02945939 312.86086099 -62.65861761 318.44768018 -67.30639648 324.02319336 C-68.16406616 325.05585327 -68.16406616 325.05585327 -69.0390625 326.109375 C-69.55033691 326.72200195 -70.06161133 327.33462891 -70.58837891 327.96582031 C-71.89394984 329.52858934 -71.89394984 329.52858934 -72.8125 331.53125 C-74.5625 332.34375 -74.5625 332.34375 -76.8125 332.53125 C-83.09011245 329.81660678 -87.6829547 323.88034658 -92.0625 318.80078125 C-96.36885998 313.85777431 -100.87184942 309.11100212 -105.3828125 304.35546875 C-109.00503476 300.51799148 -112.48314579 296.62597299 -115.8125 292.53125 C-117.01284609 296.13228826 -116.55761013 297.99793878 -115.88671875 301.71875 C-115.66790039 302.96462891 -115.44908203 304.21050781 -115.22363281 305.49414062 C-115.10524048 306.15260986 -114.98684814 306.8110791 -114.86486816 307.48950195 C-114.25063377 310.92666637 -113.66959295 314.36937587 -113.08984375 317.8125 C-112.97553009 318.49123169 -112.86121643 319.16996338 -112.74343872 319.8692627 C-108.89978048 342.87709098 -108.70140605 366.25089549 -108.8125 389.53125 C-105.54656442 386.47712439 -103.66247343 382.86805869 -101.5625 378.96875 C-98.93752516 374.14381677 -96.28234398 369.67257694 -92.875 365.34375 C-89.37048324 360.60423192 -88.96520243 356.21472492 -88.30859375 350.4609375 C-87.54264736 345.93763205 -86.38667028 344.4210047 -82.8125 341.53125 C-76.97931543 338.53673349 -72.15064682 338.05234907 -65.8125 339.53125 C-62.9375 341.09375 -62.9375 341.09375 -60.8125 342.53125 C-60.1525 342.53125 -59.4925 342.53125 -58.8125 342.53125 C-58.41160156 341.82967773 -58.01070312 341.12810547 -57.59765625 340.40527344 C-56.74494141 338.91302246 -56.74494141 338.91302246 -55.875 337.390625 C-55.23554443 336.27155762 -54.59608887 335.15249023 -53.93725586 333.99951172 C-52.5006618 331.48546165 -51.06396318 328.97147138 -49.62719727 326.45751953 C-45.98806681 320.08982441 -42.3499014 313.72158361 -38.71484375 307.3515625 C-30.32528115 292.65156801 -21.9253737 277.95761384 -13.42675781 263.3203125 C-11.9695385 260.80257604 -10.52606788 258.27753161 -9.0859375 255.75 C-8.30798914 254.40584609 -7.52940822 253.06205794 -6.75 251.71875 C-6.11964844 250.61917969 -5.48929688 249.51960938 -4.83984375 248.38671875 C-0.94111043 242.89543925 3.42303751 239.69753664 10.1875 238.53125 C16.62550222 238.63344051 21.41794103 240.08217523 26.1875 244.53125 C29.29979586 248.60849348 31.71082205 253.05380853 34.1875 257.53125 C35.22836693 259.3871675 36.27010156 261.24259851 37.3125 263.09765625 C39.09139601 266.26894084 40.86712138 269.44186808 42.63574219 272.61889648 C47.24628279 280.89558407 51.98055952 289.09210937 56.77563477 297.26293945 C62.1865782 306.49479828 67.49055554 315.78608358 72.77099609 325.09301758 C76.12485802 330.98849797 79.53724881 336.81415792 83.1875 342.53125 C83.79634033 342.21647705 84.40518066 341.9017041 85.0324707 341.57739258 C90.63702573 338.85670397 97.03757575 337.80551793 103.0625 339.53125 C107.19230659 341.26000625 110.35376056 343.34099453 112.1875 347.53125 C112.46730771 349.50389434 112.69000916 351.48496663 112.875 353.46875 C113.78221791 361.01748772 117.12150728 365.58273011 121.43359375 371.5859375 C124.38427291 375.706227 126.86682237 380.03487742 129.3125 384.46875 C129.89753296 385.52606323 129.89753296 385.52606323 130.49438477 386.60473633 C131.39714839 388.24413212 132.29313377 389.88725797 133.1875 391.53125 C133.5175 391.53125 133.8475 391.53125 134.1875 391.53125 C134.17964478 390.66681274 134.17964478 390.66681274 134.17163086 389.78491211 C133.94569962 360.77705699 135.56289346 332.3890959 140.91723633 303.82617188 C141.08247803 302.93865234 141.24771973 302.05113281 141.41796875 301.13671875 C141.56645264 300.36481201 141.71493652 299.59290527 141.86791992 298.79760742 C142.21320031 296.3489918 142.24119372 294.00088864 142.1875 291.53125 C141.47335937 292.24667969 140.75921875 292.96210938 140.0234375 293.69921875 C138.20195661 295.52134056 136.37305004 297.33488867 134.5390625 299.14453125 C133.63929688 300.03527344 132.73953125 300.92601562 131.8125 301.84375 C130.91789062 302.72675781 130.02328125 303.60976563 129.1015625 304.51953125 C126.28116996 307.37591432 123.65933794 310.38728442 121.03027344 313.41918945 C117.91352012 316.99139838 114.71633643 320.48627877 111.5 323.96875 C110.52450195 325.04672852 110.52450195 325.04672852 109.52929688 326.14648438 C108.89701172 326.82904297 108.26472656 327.51160156 107.61328125 328.21484375 C106.76890503 329.13608032 106.76890503 329.13608032 105.9074707 330.07592773 C103.95506817 331.72791802 102.71587858 332.23627771 100.1875 332.53125 C96.25605278 331.22076759 94.77168109 328.72566865 92.375 325.53125 C91.39125759 324.24851396 90.40548586 322.96733234 89.41796875 321.6875 C88.63365479 320.67042969 88.63365479 320.67042969 87.83349609 319.6328125 C85.02091029 316.04178037 82.10169143 312.53992212 79.1875 309.03125 C74.49438952 303.36677921 69.89011571 297.64770887 65.37329102 291.84204102 C61.70666681 287.147879 57.92563909 282.55474216 54.125 277.96875 C51.80793261 275.15998211 49.49593902 272.3471126 47.1875 269.53125 C46.66607422 268.89670898 46.14464844 268.26216797 45.60742188 267.60839844 C44.18316285 265.8638204 42.77635668 264.10674711 41.375 262.34375 C40.58480469 261.36019531 39.79460937 260.37664062 38.98046875 259.36328125 C37.03124781 256.28444643 36.33640303 254.16140329 36.1875 250.53125 C38.1875 248.53125 38.1875 248.53125 40.40363121 248.48670959 C47.04754072 249.21531609 53.58683264 250.20843611 60.15087891 251.46484375 C61.18475739 251.6584549 62.21863586 251.85206604 63.28384399 252.05154419 C66.66157008 252.68549529 70.03783088 253.32689148 73.4140625 253.96875 C75.7724272 254.41367078 78.13085722 254.8582455 80.48934937 255.30249023 C85.410359 256.23059055 90.33066925 257.16228912 95.25048828 258.09667969 C101.5702294 259.29672892 107.89148344 260.48858054 114.21325111 261.67790222 C119.07261373 262.59286371 123.93124648 263.51165169 128.78965378 264.43167114 C131.12196755 264.87293873 133.45449004 265.31310462 135.78722 265.75216675 C139.03157649 266.36349774 142.2749368 266.97985454 145.51806641 267.59765625 C146.97351868 267.87042892 146.97351868 267.87042892 148.45837402 268.14871216 C149.33575226 268.31692474 150.21313049 268.48513733 151.11709595 268.65844727 C151.8835676 268.80371353 152.65003925 268.9489798 153.43973732 269.09864807 C155.1875 269.53125 155.1875 269.53125 156.1875 270.53125 C156.42256847 275.44464201 155.87351349 279.77657632 154.796875 284.5625 C154.49762726 285.92931599 154.19898813 287.29626533 153.90087891 288.66333008 C153.74339172 289.37518463 153.58590454 290.08703918 153.42364502 290.82046509 C150.68669115 303.26699045 148.38949265 315.69641021 146.8125 328.34375 C146.65749023 329.57996094 146.50248047 330.81617188 146.34277344 332.08984375 C144.79682319 345.02089 143.97884292 357.81862923 144 370.84375 C144.00060425 371.53856476 144.0012085 372.23337952 144.00183105 372.94924927 C144.06193004 398.63313627 146.67641477 424.15370044 153.25 449.03125 C153.49524414 449.97564941 153.74048828 450.92004883 153.99316406 451.89306641 C154.23389648 452.75335449 154.47462891 453.61364258 154.72265625 454.5 C155.03795288 455.63598633 155.03795288 455.63598633 155.35961914 456.79492188 C155.63281982 457.36791016 155.90602051 457.94089844 156.1875 458.53125 C159.54043398 459.64889466 160.2428694 459.43807688 163.4765625 458.37890625 C164.32726318 458.10127441 165.17796387 457.82364258 166.05444336 457.53759766 C166.96460205 457.22612793 167.87476074 456.9146582 168.8125 456.59375 C170.2212439 456.11494385 170.2212439 456.11494385 171.65844727 455.62646484 C190.05878875 449.21320998 206.33193378 440.20145193 221.1875 427.53125 C222.01894531 426.84546875 222.85039062 426.1596875 223.70703125 425.453125 C230.245799 419.86855531 235.3438044 413.62345051 240.1875 406.53125 C240.78691406 405.73203125 241.38632812 404.9328125 242.00390625 404.109375 C243.84503843 400.09898808 242.88776466 396.5759739 241.47953796 392.46405029 C240.55164774 390.12734064 239.56982417 387.82091306 238.56640625 385.515625 C238.19531235 384.64427917 237.82421844 383.77293335 237.44187927 382.87518311 C236.21872199 380.0072818 234.98423446 377.14439931 233.75 374.28125 C232.88510134 372.2575742 232.02118435 370.23347859 231.15820312 368.20898438 C229.82429579 365.08004081 228.4897898 361.95136831 227.1522522 358.82397461 C223.14690344 349.4574419 219.20734575 340.06423593 215.28540039 330.66253662 C208.81064623 315.14479554 202.29339723 299.64515714 195.75 284.15625 C195.16202133 282.76422867 195.16202133 282.76422867 194.56216431 281.34408569 C190.54266409 271.82873858 186.51984933 262.3147994 182.49226379 252.8028717 C181.26228375 249.89728121 180.03328951 246.99127528 178.80444336 244.08520508 C177.19971619 240.29043393 175.59066894 236.49753599 173.97875977 232.70581055 C170.2998184 224.03409845 166.6901983 215.34741844 163.26953125 206.5703125 C162.65450883 205.0104809 162.03904153 203.45082462 161.4230957 201.89135742 C160.30713991 199.06582131 159.22557071 196.23066271 158.16479492 193.3840332 C154.46966331 183.82347035 149.46325473 177.59150188 142.1875 170.53125 C140.95265869 169.28734497 140.95265869 169.28734497 139.69287109 168.01831055 C122.93741879 151.40687142 100.30271391 144.6309524 77.1875 144.53125 C64.59185309 145.25924268 53.57097555 149.14836676 44.3671875 157.92578125 C41.31144479 161.57843427 39.50145567 165.53611192 37.546875 169.8515625 C35.13686691 174.60232557 32.10348879 176.61490754 27.3125 178.90625 C22.41175715 179.88639857 18.08479178 179.43472227 13.5625 177.28125 C12.77875 177.03375 11.995 176.78625 11.1875 176.53125 C10.28 177.005625 9.3725 177.48 8.4375 177.96875 C4.04987422 180.07818547 0.83259076 179.75715367 -3.8125 178.53125 C-9.90242742 175.31392985 -13.14315497 171.29390958 -15.75 165.03125 C-19.03731947 157.28807172 -25.73342336 152.1292279 -33.375 148.90625 C-64.42028772 136.4498074 -97.70710318 150.57161053 -120.25 172.53125 Z M-3.8125 164.53125 C-3.06099977 167.80898504 -3.06099977 167.80898504 0.1875 169.53125 C2.83382287 169.2190736 2.83382287 169.2190736 5.1875 168.53125 C4.8575 167.54125 4.5275 166.55125 4.1875 165.53125 C1.47870665 164.17685332 -0.82183268 164.46623549 -3.8125 164.53125 Z M19.1875 166.53125 C19.5175 167.52125 19.8475 168.51125 20.1875 169.53125 C23.56212715 168.98401317 25.26985 168.47635 28.1875 166.53125 C28.1875 165.87125 28.1875 165.21125 28.1875 164.53125 C24.56221432 164.32984524 22.32248292 164.67348235 19.1875 166.53125 Z M-138.8125 176.53125 C-137.8125 178.53125 -137.8125 178.53125 -137.8125 178.53125 Z M162.1875 176.53125 C163.1875 178.53125 163.1875 178.53125 163.1875 178.53125 Z M-139.8125 178.53125 C-140.1425 180.18125 -140.4725 181.83125 -140.8125 183.53125 C-140.1525 182.87125 -139.4925 182.21125 -138.8125 181.53125 C-139.1425 180.54125 -139.4725 179.55125 -139.8125 178.53125 Z M163.1875 178.53125 C163.5175 180.18125 163.8475 181.83125 164.1875 183.53125 C164.5175 182.54125 164.8475 181.55125 165.1875 180.53125 C164.5275 179.87125 163.8675 179.21125 163.1875 178.53125 Z M-141.8125 183.53125 C-142.93766085 185.36409443 -142.93766085 185.36409443 -143.8125 187.53125 C-143.4825 188.52125 -143.1525 189.51125 -142.8125 190.53125 C-141.68733915 188.69840557 -141.68733915 188.69840557 -140.8125 186.53125 C-141.1425 185.54125 -141.4725 184.55125 -141.8125 183.53125 Z M165.1875 183.53125 C165.76202746 187.46200644 165.76202746 187.46200644 168.1875 190.53125 C167.61297254 186.60049356 167.61297254 186.60049356 165.1875 183.53125 Z M-144.8125 190.53125 C-145.93766085 192.36409443 -145.93766085 192.36409443 -146.8125 194.53125 C-146.4825 195.52125 -146.1525 196.51125 -145.8125 197.53125 C-144.68733915 195.69840557 -144.68733915 195.69840557 -143.8125 193.53125 C-144.1425 192.54125 -144.4725 191.55125 -144.8125 190.53125 Z M168.1875 190.53125 C168.76202746 194.46200644 168.76202746 194.46200644 171.1875 197.53125 C170.61297254 193.60049356 170.61297254 193.60049356 168.1875 190.53125 Z M-147.8125 197.53125 C-156.33078501 216.53791877 -164.64182622 235.62931123 -172.8888855 254.75486755 C-176.02089596 262.01765893 -179.16546948 269.27495503 -182.3125 276.53125 C-187.15239897 287.69508244 -191.98396615 298.86249797 -196.8125 310.03125 C-205.94869392 331.16274068 -205.94869392 331.16274068 -210.20629883 340.98999023 C-211.30059301 343.515983 -212.39275395 346.04288074 -213.4831543 348.57055664 C-215.67038624 353.63251593 -217.86607158 358.68608446 -220.171875 363.6953125 C-220.67835571 364.80652466 -220.67835571 364.80652466 -221.19506836 365.94018555 C-222.03200709 367.76589412 -222.88420533 369.58458894 -223.73828125 371.40234375 C-224.95338323 374.94160442 -225.01453086 377.81482185 -224.8125 381.53125 C-222.50606657 379.43155478 -221.21141113 377.61418948 -220.01342773 374.7421875 C-219.52923622 373.59671448 -219.52923622 373.59671448 -219.03526306 372.42810059 C-218.52087425 371.17978455 -218.52087425 371.17978455 -217.99609375 369.90625 C-217.62782974 369.02924438 -217.25956573 368.15223877 -216.88014221 367.24865723 C-215.66313486 364.34571264 -214.45661985 361.43852576 -213.25 358.53125 C-212.39586766 356.48864556 -211.5410398 354.44633184 -210.68554688 352.40429688 C-208.47947898 347.13420288 -206.28165195 341.86071318 -204.08563232 336.58642578 C-202.13670462 331.90952253 -200.18008785 327.23584916 -198.22265625 322.5625 C-197.48518392 320.8015971 -196.74771645 319.04069216 -196.01025391 317.27978516 C-195.64796692 316.41476379 -195.28567993 315.54974243 -194.91241455 314.6585083 C-193.80201922 312.00621558 -192.69262101 309.3535078 -191.58349609 306.70068359 C-186.59868618 294.77996063 -181.58967324 282.86964055 -176.56188965 270.96697998 C-175.38436492 268.17842751 -174.20817687 265.38931438 -173.03222656 262.60009766 C-169.28858324 253.72576897 -165.52973498 244.85846531 -161.73204041 236.0071106 C-159.93603093 231.81872452 -158.14700765 227.62737177 -156.35861206 223.43572998 C-155.49911425 221.42677452 -154.63613246 219.41930581 -153.76956177 217.41339111 C-152.57214796 214.64116498 -151.38642 211.86421304 -150.203125 209.0859375 C-149.66252693 207.84713837 -149.66252693 207.84713837 -149.11100769 206.58331299 C-147.07959894 202.16977895 -147.07959894 202.16977895 -147.8125 197.53125 Z M171.1875 197.53125 C171.88525332 202.30374153 173.68177168 206.43941797 175.5546875 210.84375 C175.90085114 211.66806519 176.24701477 212.49238037 176.60366821 213.3416748 C177.75217203 216.0734263 178.90732369 218.80231417 180.0625 221.53125 C180.87605357 223.46272112 181.68919739 225.39436489 182.50195312 227.32617188 C184.63432201 232.39105509 186.77242291 237.45349599 188.91247559 242.51513672 C190.93563878 247.30099753 192.9558959 252.0880847 194.9765625 256.875 C197.34247147 262.47898769 199.70906211 268.08268526 202.07763672 273.68554688 C207.84454484 287.3300865 213.57372399 300.99010315 219.28512573 314.65795898 C223.67204731 325.1551876 228.07455106 335.64559625 232.50390625 346.125 C232.94407074 347.16644165 233.38423523 348.2078833 233.83773804 349.28088379 C235.97645485 354.3397802 238.11704177 359.39787768 240.25976562 364.45507812 C241.02865814 366.27213021 241.79753898 368.08918723 242.56640625 369.90625 C242.91965469 370.73846069 243.27290314 371.57067139 243.63685608 372.42810059 C244.12127419 373.57357361 244.12127419 373.57357361 244.61547852 374.7421875 C244.89649918 375.40524902 245.17751984 376.06831055 245.46705627 376.75146484 C246.10242241 378.3210742 246.6520223 379.92481691 247.1875 381.53125 C247.8475 381.53125 248.5075 381.53125 249.1875 381.53125 C249.47274827 376.21545081 248.7514693 372.71079234 246.5390625 367.88671875 C246.25542847 367.25702179 245.97179443 366.62732483 245.67956543 365.97854614 C245.06120455 364.60901911 244.43701897 363.24211028 243.80767822 361.87759399 C242.06378778 358.09456566 240.36433166 354.29148123 238.65625 350.4921875 C238.29274445 349.68709244 237.92923889 348.88199738 237.55471802 348.05250549 C233.73604855 339.57834293 230.0810226 331.0362015 226.4380188 322.48538208 C224.54478565 318.04189751 222.64593586 313.60081848 220.74609375 309.16015625 C220.17990578 307.83675484 220.17990578 307.83675484 219.60227966 306.48661804 C215.56760562 297.066915 211.47634726 287.67207661 207.375 278.28125 C207.02121277 277.47113464 206.66742554 276.66101929 206.30291748 275.82635498 C204.91178594 272.64118367 203.52055176 269.45605725 202.12902832 266.27105713 C199.15151251 259.45396069 196.18853067 252.63062851 193.23248291 245.80419922 C192.44966048 243.99682601 191.66599894 242.18981632 190.88232422 240.3828125 C188.4058434 234.66942466 185.93722529 228.95293593 183.48605347 223.22865295 C182.28355967 220.42181655 181.07755612 217.61649482 179.87121582 214.81130981 C179.29530625 213.46935658 178.72113743 212.12665481 178.14880371 210.78317261 C177.36000219 208.93174008 176.56491846 207.08298785 175.76953125 205.234375 C175.31811768 204.17895508 174.8667041 203.12353516 174.40161133 202.03613281 C173.30994243 199.43510048 173.30994243 199.43510048 171.1875 197.53125 Z M6.1875 250.53125 C5.19128303 251.90030267 4.24100299 253.30289843 3.3125 254.71875 C2.79945313 255.49605469 2.28640625 256.27335938 1.7578125 257.07421875 C1.23960937 257.88503906 0.72140625 258.69585937 0.1875 259.53125 C-0.33286331 260.23807419 -0.85322662 260.94489838 -1.38935852 261.67314148 C-3.23621299 265.38219682 -3.21066513 268.6700945 -3.15307617 272.71801758 C-3.15351425 273.52829407 -3.15395233 274.33857056 -3.15440369 275.17340088 C-3.15232024 277.84110948 -3.12901045 280.50818297 -3.10546875 283.17578125 C-3.09987121 285.02951209 -3.09560186 286.88324738 -3.09260559 288.73698425 C-3.08116927 293.6081881 -3.05171248 298.47912221 -3.01849365 303.35021973 C-2.98776665 308.32393749 -2.97409463 313.29769898 -2.95898438 318.27148438 C-2.92684165 328.02485788 -2.87565992 337.77803148 -2.8125 347.53125 C0.4875 347.53125 3.7875 347.53125 7.1875 347.53125 C7.1875 315.52125 7.1875 283.51125 7.1875 250.53125 C6.8575 250.53125 6.5275 250.53125 6.1875 250.53125 Z M17.1875 251.53125 C17.1875 283.21125 17.1875 314.89125 17.1875 347.53125 C20.4875 347.53125 23.7875 347.53125 27.1875 347.53125 C27.3503594 337.04726174 27.47440625 326.56357897 27.5501852 316.07857895 C27.58657304 311.20882947 27.63585503 306.33995128 27.71557617 301.47070312 C27.79215727 296.76328335 27.8335987 292.05669655 27.8516407 287.34870148 C27.86448219 285.56102653 27.88955756 283.77339239 27.9276104 281.98607635 C28.15620874 270.79434811 27.69834843 262.49534895 20.1875 253.53125 C19.1975 252.87125 18.2075 252.21125 17.1875 251.53125 Z M54.1875 260.53125 C57.2978852 265.39311425 60.76903889 269.82972991 64.4375 274.28125 C65.60965804 275.71331004 66.78153421 277.14560085 67.953125 278.578125 C68.51451172 279.26326172 69.07589844 279.94839844 69.65429688 280.65429688 C71.51579056 282.93314456 73.35507914 285.22897764 75.1875 287.53125 C79.21801102 292.58646721 83.30111987 297.59839948 87.3815918 302.61328125 C91.67841832 307.89702032 95.94716715 313.20200992 100.1875 318.53125 C103.87744791 316.98740972 106.2114451 314.74311057 109 311.90625 C109.81082031 311.08898437 110.62164062 310.27171875 111.45703125 309.4296875 C113.53728444 307.22146452 115.54448293 304.99302477 117.53125 302.703125 C121.81332026 297.77162195 126.32115007 293.06387382 130.84570312 288.35546875 C131.47798828 287.68902344 132.11027344 287.02257812 132.76171875 286.3359375 C133.32463623 285.74796387 133.88755371 285.15999023 134.4675293 284.55419922 C136.61559049 282.02774996 138.36489552 279.29868387 140.1875 276.53125 C129.27021267 274.44295355 118.35255162 272.35662335 107.43440437 270.27282715 C102.36509981 269.30525432 97.29592822 268.33699564 92.22705078 267.3671875 C87.33851982 266.43191018 82.44965243 265.49841096 77.56054306 264.56616211 C75.69204399 264.20955174 73.82366862 263.85229257 71.95541763 263.49438477 C69.34576226 262.99455639 66.73568302 262.49700279 64.12548828 262 C63.3472168 261.85038818 62.56894531 261.70077637 61.76708984 261.54663086 C58.00382275 260.79788867 58.00382275 260.79788867 54.1875 260.53125 Z M-39.75048828 261.88647461 C-40.57008026 262.04238571 -41.38967224 262.19829681 -42.23410034 262.3589325 C-44.95158784 262.87751371 -47.66715482 263.40552117 -50.3828125 263.93359375 C-52.26314366 264.29432674 -54.14358753 264.65447271 -56.0241394 265.01405334 C-60.98024946 265.96335415 -65.93478337 266.92064787 -70.88903809 267.87957764 C-75.94203005 268.85616298 -80.99646239 269.8252318 -86.05078125 270.79492188 C-95.97278367 272.69965034 -105.89313829 274.61282037 -115.8125 276.53125 C-113.28466628 280.39882567 -110.84280779 283.7118795 -107.5 286.90625 C-104.01945615 290.24307301 -100.84710756 293.75100322 -97.69262695 297.390625 C-94.56478735 300.95183752 -91.31289764 304.39468076 -88.0625 307.84375 C-87.40378906 308.54564453 -86.74507812 309.24753906 -86.06640625 309.97070312 C-83.34949431 312.86121086 -80.63028591 315.73848977 -77.8125 318.53125 C-74.72967098 317.18800551 -72.94314961 315.8153003 -70.859375 313.1875 C-70.32699219 312.52363281 -69.79460937 311.85976563 -69.24609375 311.17578125 C-68.69050781 310.46808594 -68.13492188 309.76039063 -67.5625 309.03125 C-66.98113281 308.30292969 -66.39976562 307.57460938 -65.80078125 306.82421875 C-64.13176253 304.73144026 -62.4715131 302.63196213 -60.8125 300.53125 C-59.48033576 298.86364873 -58.14722408 297.19680312 -56.8125 295.53125 C-56.20148438 294.76425781 -55.59046875 293.99726563 -54.9609375 293.20703125 C-53.24621729 291.07142517 -51.52157417 288.94534611 -49.7890625 286.82421875 C-42.98869947 278.49650682 -36.31039842 270.09732828 -29.8125 261.53125 C-33.04918744 259.91290628 -36.32282145 261.21171923 -39.75048828 261.88647461 Z M-13.8125 284.53125 C-24.27925481 296.82840712 -23.92261613 308.95984797 -23.375 324.46875 C-23.32975883 326.71280942 -23.28871139 328.95695748 -23.25195312 331.20117188 C-23.15375743 336.64675852 -22.99901087 342.08800194 -22.8125 347.53125 C-19.5125 347.53125 -16.2125 347.53125 -12.8125 347.53125 C-12.8125 326.74125 -12.8125 305.95125 -12.8125 284.53125 C-13.1425 284.53125 -13.4725 284.53125 -13.8125 284.53125 Z M37.1875 284.53125 C37.1875 305.32125 37.1875 326.11125 37.1875 347.53125 C40.4875 347.53125 43.7875 347.53125 47.1875 347.53125 C47.41261971 341.13092333 47.57450945 334.73297625 47.68188477 328.32958984 C47.72671179 326.15893339 47.78779996 323.9885417 47.86645508 321.81884766 C48.39160779 306.94295312 47.156926 296.67474946 38.1875 284.53125 C37.8575 284.53125 37.5275 284.53125 37.1875 284.53125 Z M-33.8125 318.53125 C-35.93096237 322.33954235 -38.04886934 326.14814285 -40.16625977 329.95703125 C-40.88680976 331.25301484 -41.60751207 332.54891375 -42.32836914 333.84472656 C-43.36384392 335.70615817 -44.39877248 337.56789253 -45.43359375 339.4296875 C-46.0567749 340.55036621 -46.67995605 341.67104492 -47.32202148 342.82568359 C-48.17833046 344.38008426 -49.01884687 345.94394373 -49.8125 347.53125 C-44.2025 347.53125 -38.5925 347.53125 -32.8125 347.53125 C-32.8125 337.96125 -32.8125 328.39125 -32.8125 318.53125 C-33.1425 318.53125 -33.4725 318.53125 -33.8125 318.53125 Z M57.1875 319.53125 C57.1875 328.77125 57.1875 338.01125 57.1875 347.53125 C62.4675 347.53125 67.7475 347.53125 73.1875 347.53125 C71.67314509 343.74536273 70.14834619 340.52136244 68.1484375 337.01171875 C67.56835938 335.99013672 66.98828125 334.96855469 66.390625 333.91601562 C65.78734375 332.86091797 65.1840625 331.80582031 64.5625 330.71875 C63.95148438 329.64431641 63.34046875 328.56988281 62.7109375 327.46289062 C61.20594115 324.81738924 59.69804209 322.1735875 58.1875 319.53125 C57.8575 319.53125 57.5275 319.53125 57.1875 319.53125 Z M-78.8125 352.53125 C-80.02761798 355.22186839 -79.88130614 356.29042853 -79.0625 359.15625 C-77.90480617 361.81489637 -77.90480617 361.81489637 -74.8125 363.53125 C-71.2352467 363.98792063 -69.47791695 363.96902431 -66.4375 361.96875 C-64.17336105 358.57254157 -64.16980245 356.53025698 -64.8125 352.53125 C-67.23109563 349.83624344 -68.82013965 348.72488129 -72.375 348.03125 C-75.63379086 348.69971992 -76.78925837 349.92993934 -78.8125 352.53125 Z M89.1875 352.53125 C88.54480245 356.53025698 88.54836105 358.57254157 90.8125 361.96875 C93.90435231 364.00286336 95.55117425 364.13730429 99.1875 363.53125 C101.5636363 361.7330928 102.83891783 360.30311052 104.0625 357.59375 C104.23412054 354.76201112 103.50051604 353.02598047 102.1875 350.53125 C96.9688737 347.0521658 93.37692006 347.86303908 89.1875 352.53125 Z M-53.8125 358.53125 C-55.1325 361.17125 -56.4525 363.81125 -57.8125 366.53125 C-60.5625 369.53125 -60.5625 369.53125 -62.8125 371.53125 C-60.6247559 376.29404218 -57.35296407 379.71598457 -53.8125 383.53125 C-53.01585937 384.39363281 -52.21921875 385.25601562 -51.3984375 386.14453125 C-40.41853843 397.59407202 -28.050155 405.16586 -14.0625 412.40625 C-13.43539124 412.7312146 -12.80828247 413.0561792 -12.16217041 413.39099121 C-6.2983104 416.41437345 -0.3968049 419.3762958 5.640625 422.0390625 C6.35895508 422.35762207 7.07728516 422.67618164 7.81738281 423.00439453 C13.55069578 424.2788578 18.54216078 422.18002662 23.65234375 419.72265625 C24.24310196 419.44057816 24.83386017 419.15850006 25.44252014 418.86787415 C27.34265859 417.95493922 29.23437059 417.02620287 31.125 416.09375 C32.09651001 415.6184787 32.09651001 415.6184787 33.08764648 415.13360596 C49.0350987 407.31627579 62.57225355 399.09484754 75.1875 386.53125 C76.07824219 385.66628906 76.96898437 384.80132812 77.88671875 383.91015625 C82.96959448 379.08255359 82.96959448 379.08255359 87.1875 373.53125 C86.39768414 370.37644371 86.39768414 370.37644371 83.8125 368.28125 C81.1875 365.53125 81.1875 365.53125 78.1875 358.53125 C34.6275 358.53125 -8.9325 358.53125 -53.8125 358.53125 Z M-83.8125 370.53125 C-102.00040279 392.91636113 -111.86322913 422.05536667 -119.375 449.46875 C-119.55716064 450.11895111 -119.73932129 450.76915222 -119.92700195 451.4390564 C-120.44680524 453.3081281 -120.94447213 455.18331218 -121.44140625 457.05859375 C-121.73088135 458.13874756 -122.02035645 459.21890137 -122.31860352 460.33178711 C-122.97572287 464.58860823 -122.65252322 468.49580912 -121 472.5 C-105.47077066 492.52453257 -54.65739925 496.48628978 -31.32373047 499.57275391 C-23.87857906 500.48356143 -16.41496598 501.13803157 -8.9375 501.71875 C-7.86910889 501.80278076 -6.80071777 501.88681152 -5.69995117 501.97338867 C8.76470448 502.99670083 23.01412521 502.57373621 37.4375 501.34375 C38.21540894 501.27811859 38.99331787 501.21248718 39.7947998 501.14486694 C60.58532773 499.35450391 80.75982818 495.53551529 101 490.53125 C101.6549646 490.36984528 102.3099292 490.20844055 102.98474121 490.04214478 C127.46255373 485.04860994 127.46255373 485.04860994 146.1875 470.53125 C147.22649944 465.64719426 147.15613727 462.04301366 145.88671875 457.234375 C145.41806396 455.44555908 145.41806396 455.44555908 144.93994141 453.62060547 C144.58851074 452.35361816 144.23708008 451.08663086 143.875 449.78125 C143.69588074 449.12529846 143.51676147 448.46934692 143.33221436 447.79351807 C132.64691617 405.53574424 132.64691617 405.53574424 108.1640625 371.0546875 C106.20217756 370.3523998 106.20217756 370.3523998 104.328125 371.078125 C99.28685959 374.28620299 95.97696841 377.99719329 92.36328125 382.7265625 C76.47909909 403.20204327 55.30568239 415.5899482 32.1875 426.53125 C31.48641113 426.86850098 30.78532227 427.20575195 30.06298828 427.55322266 C27.94610699 428.56485089 25.81940658 429.55173888 23.6875 430.53125 C23.05320068 430.83442139 22.41890137 431.13759277 21.76538086 431.44995117 C16.50290463 433.80303477 11.63875421 434.59116124 6.12695312 432.8984375 C3.93365252 432.02357016 1.81554168 431.0544871 -0.3125 430.03125 C-1.09149658 429.6695874 -1.87049316 429.3079248 -2.6730957 428.93530273 C-5.06166409 427.81811989 -7.43778647 426.67754328 -9.8125 425.53125 C-10.52067871 425.19496582 -11.22885742 424.85868164 -11.95849609 424.51220703 C-25.80992185 417.92083891 -39.20515601 410.65995145 -50.8125 400.53125 C-51.76640625 399.72171875 -52.7203125 398.9121875 -53.703125 398.078125 C-59.95529089 392.65118455 -65.22535781 386.86826978 -70.15991211 380.21435547 C-74.20741237 374.78314071 -77.33025687 372.4464582 -83.8125 370.53125 Z " fill="#000000" transform="translate(243.8125,-0.53125)"/>
<path d="M0 0 C9.42820424 7.54614826 15.97684906 16.83387466 17.87109375 29.01953125 C18.73945253 41.43521424 16.18644828 52.9836781 8.1015625 62.640625 C-4.53025031 75.00726616 -23.00683138 75.96584139 -39.69213867 75.88085938 C-78.01486662 75.24839171 -78.01486662 75.24839171 -90.9453125 64.64453125 C-98.44400885 56.57989555 -101.33207145 47.67129915 -100.9453125 36.76953125 C-99.40642684 21.93143374 -91.96496441 7.90429592 -80.4140625 -1.609375 C-57.64576771 -17.71289996 -22.50655159 -16.28221223 0 0 Z M-79.1328125 12.89453125 C-86.23341387 21.1808912 -90.53823765 31.08454599 -90.25390625 42.08984375 C-89.53165265 48.06900648 -87.13574333 52.88595005 -82.7578125 57.01953125 C-71.21091144 65.80099802 -54.103058 64.83448636 -40.31451416 64.94107056 C-38.30970056 64.95662858 -36.30498399 64.98341431 -34.30029297 65.01049805 C-21.00766935 65.00126589 -8.97103939 63.51058252 0.8046875 53.95703125 C6.26669906 46.69903622 8.24544821 38.59403808 7.0546875 29.64453125 C5.2018466 20.88341601 0.85843631 14.41556819 -5.9453125 8.64453125 C-28.48071329 -5.5599634 -60.04766823 -7.2568222 -79.1328125 12.89453125 Z " fill="#000000" transform="translate(217.9453125,167.35546875)"/>
<path d="M0 0 C11.46214862 9.53720763 18.62973047 23.19022885 20.30859375 37.94140625 C20.73765694 47.4854461 18.37651337 56.94279649 12.12109375 64.35546875 C-3.08437113 78.70890327 -29.26719183 77.60777705 -48.8671875 77.25390625 C-62.67847376 76.82001546 -76.98324944 74.50170669 -87.69140625 65.06640625 C-95.95408933 55.63022927 -98.90574499 45.51234233 -98.69140625 33.06640625 C-97.24303582 20.93103074 -92.18007873 11.57164266 -83.37890625 3.171875 C-60.57102568 -14.69650818 -23.63736161 -16.98184905 0 0 Z M-59.69140625 3.06640625 C-61.191875 3.55947266 -61.191875 3.55947266 -62.72265625 4.0625 C-72.3615904 7.57973734 -79.98298349 13.1369473 -84.75390625 22.37890625 C-88.38826064 30.41070012 -89.16753264 38.85223414 -86.12890625 47.25390625 C-83.10618446 53.9017804 -79.05368069 59.2337408 -72.37890625 62.44140625 C-62.63431846 66.01984201 -53.13334366 66.4218698 -42.81640625 66.37890625 C-42.13697968 66.37741577 -41.4575531 66.37592529 -40.75753784 66.37438965 C-32.20145469 66.34071566 -23.73370657 66.05588822 -15.25390625 64.81640625 C-14.48771973 64.70723877 -13.7215332 64.59807129 -12.93212891 64.4855957 C-5.10282471 63.14496142 1.20371349 60.16418713 6.12109375 53.84375 C9.76772219 48.38580283 10.1282304 42.42712818 9.30859375 36.06640625 C5.94383271 22.8326809 -0.94936296 12.03854007 -12.73046875 4.81640625 C-20.56497881 0.70253224 -27.62231672 -0.29769108 -36.37890625 -0.24609375 C-37.35843262 -0.2411792 -38.33795898 -0.23626465 -39.34716797 -0.23120117 C-46.50678944 -0.11534008 -52.92423554 0.60833101 -59.69140625 3.06640625 Z " fill="#000000" transform="translate(374.69140625,165.93359375)"/>
<path d="M0 0 C1.14210937 -0.00257813 2.28421875 -0.00515625 3.4609375 -0.0078125 C4.64945313 -0.00007812 5.83796875 0.00765625 7.0625 0.015625 C8.84527344 0.00402344 8.84527344 0.00402344 10.6640625 -0.0078125 C11.80617188 -0.00523437 12.94828125 -0.00265625 14.125 0 C15.16785156 0.00225586 16.21070313 0.00451172 17.28515625 0.00683594 C20.05233196 0.26467756 21.70463845 0.84214384 24.0625 2.265625 C24.25 5.640625 24.25 5.640625 24.0625 9.265625 C20.51378499 11.63143501 18.95658047 11.52291306 14.75 11.53125 C13.50992187 11.53382813 12.26984375 11.53640625 10.9921875 11.5390625 C9.69539063 11.53132812 8.39859375 11.52359375 7.0625 11.515625 C5.11730469 11.52722656 5.11730469 11.52722656 3.1328125 11.5390625 C1.89273438 11.53648437 0.65265625 11.53390625 -0.625 11.53125 C-2.33236328 11.52786621 -2.33236328 11.52786621 -4.07421875 11.52441406 C-6.9375 11.265625 -6.9375 11.265625 -9.9375 9.265625 C-10.125 5.640625 -10.125 5.640625 -9.9375 2.265625 C-6.55157179 0.22148249 -3.92392748 0.0084881 0 0 Z " fill="#000000" transform="translate(248.9375,217.734375)"/>
<path d="M0 0 C1.38541992 0.00483398 1.38541992 0.00483398 2.79882812 0.00976562 C4.17844727 -0.0144043 4.17844727 -0.0144043 5.5859375 -0.0390625 C6.91141602 -0.0400293 6.91141602 -0.0400293 8.26367188 -0.04101562 C9.07312256 -0.04399658 9.88257324 -0.04697754 10.71655273 -0.05004883 C13.3812279 0.41251573 14.28949992 1.14527559 15.86132812 3.32226562 C15.73632812 6.38476562 15.73632812 6.38476562 14.86132812 9.32226562 C10.80777495 12.02463441 7.68227557 11.68974239 2.92382812 11.69726562 C2.11236328 11.72175781 1.30089844 11.74625 0.46484375 11.77148438 C-3.43896582 11.79069919 -5.47948918 11.79839758 -8.71289062 9.46289062 C-10.13867188 7.32226562 -10.13867188 7.32226562 -10.01367188 4.69726562 C-8.05613512 -0.61604843 -4.98048062 0.04001847 0 0 Z " fill="#000000" transform="translate(253.138671875,188.677734375)"/>
<path d="M0 0 C0.91974609 -0.020625 1.83949219 -0.04125 2.78710938 -0.0625 C3.67076172 -0.06765625 4.55441406 -0.0728125 5.46484375 -0.078125 C6.27429443 -0.0874707 7.08374512 -0.09681641 7.91772461 -0.10644531 C10.0625 0.25 10.0625 0.25 11.86547852 1.57519531 C13.0625 3.25 13.0625 3.25 12.8125 6.375 C12.0625 9.25 12.0625 9.25 11.0625 10.25 C7.42423954 10.52898825 3.77269202 10.48177293 0.125 10.5 C-1.41704102 10.5309375 -1.41704102 10.5309375 -2.99023438 10.5625 C-3.97185547 10.56765625 -4.95347656 10.5728125 -5.96484375 10.578125 C-7.32210571 10.59214355 -7.32210571 10.59214355 -8.70678711 10.60644531 C-9.44292236 10.48881836 -10.17905762 10.37119141 -10.9375 10.25 C-12.9375 7.25 -12.9375 7.25 -12.6875 4.125 C-12.31625 2.701875 -12.31625 2.701875 -11.9375 1.25 C-8.29370011 -0.57189994 -4.01167515 0.02239595 0 0 Z " fill="#000000" transform="translate(255.9375,203.75)"/>
</svg>
